<svg xmlns="http://www.w3.org/2000/svg" xmlns:xlink="http://www.w3.org/1999/xlink" width="250" zoomAndPan="magnify" viewBox="0 0 187.5 112.499997" height="150" preserveAspectRatio="xMidYMid meet" version="1.0"><defs><g/><clipPath id="22b46ce0be"><path d="M 0.164062 3.925781 L 52.195312 3.925781 L 52.195312 112.003906 L 0.164062 112.003906 Z M 0.164062 3.925781 " clip-rule="nonzero"/></clipPath></defs><path stroke-linecap="butt" transform="matrix(0.748672, 0, 0, 0.748672, 48.568625, 61.491098)" fill="none" stroke-linejoin="miter" d="M 0.00225344 1.498898 L 170.001072 1.498898 " stroke="#f13232" stroke-width="3" stroke-opacity="1" stroke-miterlimit="4"/><g clip-path="url(#22b46ce0be)"><path fill="#f13232" d="M 18.496094 8.871094 C 18.410156 8.871094 17.996094 9.304688 17.996094 9.390625 C 17.996094 9.441406 17.953125 9.5625 17.894531 9.664062 C 17.742188 9.957031 17.335938 11.332031 17.332031 11.570312 C 17.332031 11.691406 17.359375 11.878906 17.394531 11.992188 C 17.429688 12.109375 17.527344 12.449219 17.609375 12.742188 C 17.695312 13.039062 17.785156 13.347656 17.820312 13.425781 C 17.855469 13.503906 17.96875 13.78125 18.074219 14.039062 C 18.246094 14.46875 18.34375 14.6875 18.398438 14.6875 C 18.453125 14.6875 18.460938 14.460938 18.449219 14.003906 C 18.433594 13.523438 18.382812 13.144531 18.328125 13.035156 C 18.265625 12.914062 18.222656 12.511719 18.207031 11.777344 C 18.195312 10.835938 18.210938 10.644531 18.34375 10.242188 C 18.429688 9.992188 18.496094 9.734375 18.496094 9.667969 C 18.5 9.597656 18.550781 9.480469 18.609375 9.402344 C 18.738281 9.238281 18.746094 9.074219 18.632812 8.957031 C 18.582031 8.90625 18.523438 8.871094 18.496094 8.871094 Z M 11.65625 15.472656 C 11.546875 15.472656 11.265625 15.773438 11.042969 16.117188 L 10.90625 16.351562 L 11.0625 16.355469 C 11.0625 16.355469 11.0625 16.355469 11.066406 16.355469 C 11.316406 16.355469 11.867188 15.550781 11.675781 15.476562 C 11.667969 15.472656 11.664062 15.472656 11.65625 15.472656 Z M 18.367188 18.0625 C 18.324219 18.0625 18.289062 18.089844 18.289062 18.132812 C 18.289062 18.167969 18.300781 18.207031 18.316406 18.207031 C 18.339844 18.207031 18.375 18.171875 18.394531 18.132812 C 18.417969 18.089844 18.402344 18.0625 18.367188 18.0625 Z M 25.796875 3.925781 C 26.511719 3.925781 26.917969 3.953125 27.167969 4.019531 C 27.382812 4.070312 28.015625 4.210938 28.566406 4.324219 C 29.476562 4.503906 30.074219 4.722656 30.421875 5.007812 C 30.464844 5.042969 30.625 5.09375 30.78125 5.117188 C 31.21875 5.199219 32.363281 6.019531 32.65625 6.460938 C 32.789062 6.65625 32.894531 6.871094 32.894531 6.933594 C 32.894531 6.992188 32.957031 7.164062 33.035156 7.308594 C 33.113281 7.460938 33.175781 7.628906 33.175781 7.675781 C 33.175781 7.804688 33.441406 8.613281 33.589844 8.910156 C 33.917969 9.570312 34.160156 11.777344 34 12.652344 C 33.828125 13.59375 33.828125 13.636719 33.960938 13.996094 C 34.03125 14.183594 34.179688 14.484375 34.289062 14.667969 C 34.828125 15.5625 34.910156 15.742188 34.988281 16.101562 C 35.078125 16.546875 35.039062 17.0625 34.894531 17.226562 C 34.84375 17.285156 34.574219 17.449219 34.300781 17.574219 L 33.796875 17.816406 L 33.785156 18.238281 C 33.769531 18.554688 33.722656 18.710938 33.609375 18.863281 C 33.519531 18.96875 33.449219 19.121094 33.449219 19.191406 C 33.445312 19.476562 33.21875 19.886719 33.019531 19.96875 C 32.714844 20.089844 32.53125 20.382812 32.484375 20.835938 C 32.425781 21.324219 32.234375 21.738281 31.96875 21.929688 C 31.816406 22.039062 31.707031 22.070312 31.257812 22.070312 C 31.171875 22.070312 31.074219 22.066406 30.960938 22.066406 L 30.15625 22.058594 L 29.476562 21.71875 C 29.101562 21.527344 28.75 21.324219 28.6875 21.273438 C 28.558594 21.152344 28.269531 21.066406 28.058594 21.066406 C 28.003906 21.066406 27.953125 21.074219 27.914062 21.085938 C 27.824219 21.121094 27.492188 21.394531 27.167969 21.699219 C 26.683594 22.15625 26.53125 22.371094 26.214844 22.96875 C 25.871094 23.628906 25.710938 24.128906 25.597656 24.917969 C 25.550781 25.207031 25.566406 25.242188 25.859375 25.554688 C 26.027344 25.742188 26.363281 26.023438 26.59375 26.191406 C 27.058594 26.523438 27.542969 27.003906 27.605469 27.195312 C 27.65625 27.363281 28.242188 27.695312 28.671875 27.808594 C 30.292969 28.222656 30.929688 28.585938 31.25 29.292969 C 31.3125 29.429688 31.433594 29.660156 31.519531 29.804688 C 31.988281 30.605469 32.136719 30.878906 32.277344 31.238281 C 32.359375 31.457031 32.488281 31.765625 32.558594 31.925781 C 32.621094 32.082031 32.75 32.5 32.832031 32.859375 C 32.914062 33.210938 33.027344 33.664062 33.082031 33.867188 C 33.140625 34.0625 33.230469 34.476562 33.285156 34.789062 C 33.367188 35.226562 33.453125 35.449219 33.699219 35.832031 C 33.878906 36.097656 34.113281 36.480469 34.21875 36.683594 C 34.332031 36.878906 34.515625 37.21875 34.636719 37.425781 C 34.75 37.636719 34.921875 37.917969 35 38.046875 C 35.085938 38.175781 35.175781 38.355469 35.203125 38.441406 C 35.230469 38.535156 35.351562 38.738281 35.480469 38.90625 C 35.664062 39.15625 35.949219 39.726562 36.480469 40.929688 C 36.535156 41.046875 36.597656 41.226562 36.621094 41.328125 C 36.683594 41.570312 37.09375 42.472656 37.511719 43.257812 L 37.632812 43.496094 L 37.738281 43.339844 C 37.804688 43.253906 38.09375 42.941406 38.386719 42.640625 C 38.675781 42.339844 39.132812 41.871094 39.390625 41.597656 C 39.652344 41.320312 40.015625 40.972656 40.195312 40.816406 C 40.609375 40.445312 41.4375 39.410156 41.886719 38.6875 C 42.085938 38.375 42.28125 38.109375 42.332031 38.089844 C 42.417969 38.0625 43.304688 36.761719 43.304688 36.675781 C 43.304688 36.652344 43.4375 36.453125 43.589844 36.222656 C 44.039062 35.574219 44.667969 34.320312 44.71875 33.964844 C 44.757812 33.742188 44.738281 33.511719 44.675781 33.289062 C 44.613281 33.101562 44.550781 32.65625 44.53125 32.304688 C 44.511719 31.945312 44.445312 31.476562 44.390625 31.261719 C 44.332031 31.046875 44.285156 30.640625 44.289062 30.371094 C 44.292969 29.925781 44.320312 29.824219 44.574219 29.386719 C 44.730469 29.125 44.882812 28.800781 44.910156 28.664062 C 44.941406 28.535156 44.992188 28.394531 45.023438 28.355469 C 45.050781 28.3125 45.097656 28.136719 45.125 27.957031 C 45.15625 27.777344 45.265625 27.441406 45.382812 27.203125 C 45.492188 26.976562 45.609375 26.625 45.632812 26.4375 C 45.664062 26.214844 45.773438 25.972656 45.917969 25.773438 C 46.117188 25.5 46.175781 25.460938 46.414062 25.460938 C 46.417969 25.460938 46.425781 25.460938 46.433594 25.460938 C 46.683594 25.460938 46.769531 25.503906 47.03125 25.789062 C 47.226562 25.992188 47.3125 26.066406 47.394531 26.066406 C 47.425781 26.066406 47.460938 26.054688 47.5 26.035156 C 47.570312 26 47.714844 25.980469 47.878906 25.980469 C 48.222656 25.980469 48.660156 26.050781 48.769531 26.152344 C 48.855469 26.230469 49.027344 26.269531 49.335938 26.273438 C 49.746094 26.273438 49.804688 26.296875 50.03125 26.523438 C 50.167969 26.660156 50.28125 26.804688 50.28125 26.847656 C 50.28125 26.890625 50.351562 26.925781 50.429688 26.925781 C 50.519531 26.925781 50.703125 27 50.855469 27.082031 C 51.140625 27.242188 51.148438 27.269531 51.320312 28.132812 C 51.335938 28.226562 51.433594 28.3125 51.585938 28.363281 C 52.109375 28.542969 52.15625 29.09375 51.808594 31.101562 C 51.71875 31.617188 51.617188 31.882812 51.105469 32.855469 C 50.660156 33.722656 50.40625 34.113281 50.078125 34.464844 C 49.839844 34.722656 49.59375 35.042969 49.527344 35.179688 C 49.460938 35.3125 49.316406 35.519531 49.207031 35.644531 C 49.089844 35.757812 48.886719 36.050781 48.75 36.285156 C 48.609375 36.519531 48.328125 37 48.117188 37.359375 C 47.636719 38.144531 47.3125 38.757812 47.3125 38.875 C 47.3125 39.011719 46.800781 40.027344 46.628906 40.242188 C 46.539062 40.347656 46.359375 40.675781 46.226562 40.96875 C 45.90625 41.65625 45.445312 42.578125 45.253906 42.902344 C 45.175781 43.035156 45.058594 43.273438 45.007812 43.421875 C 44.957031 43.566406 44.832031 43.796875 44.738281 43.925781 C 44.636719 44.046875 44.496094 44.28125 44.421875 44.4375 C 44.351562 44.597656 44.132812 44.996094 43.933594 45.332031 C 43.738281 45.667969 43.484375 46.121094 43.375 46.332031 C 43.257812 46.546875 43.054688 46.847656 42.917969 47 C 42.777344 47.148438 42.457031 47.554688 42.203125 47.917969 C 41.957031 48.277344 41.535156 48.796875 41.269531 49.074219 C 40.507812 49.859375 39.433594 51.246094 38.988281 52.003906 C 38.75 52.40625 38.355469 52.613281 37.882812 52.613281 C 37.519531 52.613281 37.109375 52.488281 36.695312 52.242188 C 36.421875 52.082031 36.171875 51.953125 36.140625 51.953125 C 36.113281 51.949219 36.042969 51.898438 35.992188 51.835938 C 35.941406 51.769531 35.835938 51.691406 35.75 51.652344 C 34.890625 51.265625 34.417969 50.875 33.691406 49.957031 C 33.5 49.71875 33.257812 49.464844 33.15625 49.386719 C 32.894531 49.191406 32.171875 48.359375 31.945312 47.992188 C 31.839844 47.824219 31.511719 47.40625 31.214844 47.050781 C 30.914062 46.703125 30.578125 46.25 30.472656 46.054688 C 30.359375 45.851562 30.046875 45.390625 29.769531 45.015625 C 29.492188 44.648438 29.171875 44.191406 29.050781 43.996094 C 28.9375 43.808594 28.710938 43.464844 28.554688 43.226562 C 28.398438 42.988281 28.234375 42.726562 28.191406 42.65625 C 28.15625 42.597656 28.136719 42.570312 28.101562 42.570312 C 28.058594 42.570312 27.996094 42.621094 27.867188 42.738281 C 27.527344 43.050781 26.683594 43.570312 26.265625 43.71875 C 26.070312 43.789062 25.515625 43.882812 25.035156 43.929688 C 24.070312 44.023438 23.730469 44.148438 23.546875 44.5 C 23.308594 44.957031 22.480469 46.160156 22.195312 46.457031 C 22.03125 46.636719 21.746094 47 21.566406 47.277344 C 21.382812 47.550781 20.847656 48.191406 20.359375 48.691406 C 19.460938 49.625 19.332031 49.8125 18.929688 50.742188 C 18.804688 51.035156 18.585938 51.523438 18.4375 51.816406 C 18.300781 52.109375 18.117188 52.496094 18.035156 52.679688 L 17.898438 53.003906 L 18.171875 53.089844 C 18.320312 53.144531 18.484375 53.179688 18.523438 53.179688 C 18.566406 53.179688 18.78125 53.261719 18.996094 53.363281 C 19.210938 53.464844 19.425781 53.546875 19.476562 53.546875 C 19.523438 53.546875 19.71875 53.628906 19.917969 53.714844 C 20.113281 53.808594 20.449219 53.914062 20.664062 53.9375 C 20.878906 53.964844 21.089844 54.019531 21.132812 54.0625 C 21.167969 54.097656 21.265625 54.136719 21.355469 54.136719 C 21.484375 54.136719 22.207031 54.335938 22.714844 54.519531 C 22.832031 54.5625 23.074219 54.644531 23.253906 54.710938 C 23.433594 54.769531 23.664062 54.886719 23.769531 54.957031 C 23.871094 55.03125 23.992188 55.089844 24.035156 55.089844 C 24.078125 55.089844 24.234375 55.15625 24.378906 55.234375 C 24.527344 55.316406 24.699219 55.382812 24.757812 55.382812 C 24.824219 55.382812 24.9375 55.433594 25.015625 55.492188 C 25.085938 55.550781 25.203125 55.601562 25.261719 55.601562 C 25.316406 55.601562 25.488281 55.667969 25.640625 55.75 C 25.78125 55.828125 25.953125 55.894531 26.011719 55.894531 C 26.070312 55.894531 26.371094 56.027344 26.671875 56.195312 C 26.980469 56.355469 27.421875 56.574219 27.660156 56.675781 C 27.894531 56.777344 28.367188 57.046875 28.710938 57.28125 C 29.0625 57.511719 29.40625 57.730469 29.484375 57.753906 C 29.726562 57.832031 30.714844 58.386719 31.246094 58.734375 C 31.515625 58.917969 31.816406 59.105469 31.917969 59.15625 C 32.019531 59.203125 32.289062 59.40625 32.523438 59.609375 C 32.761719 59.804688 33.082031 60.035156 33.238281 60.121094 C 33.519531 60.277344 34.21875 60.777344 34.40625 60.964844 C 34.570312 61.132812 35.085938 61.464844 35.472656 61.664062 C 35.671875 61.773438 36.09375 62.105469 36.40625 62.417969 C 36.714844 62.726562 37.046875 63.054688 37.140625 63.132812 C 37.398438 63.363281 37.632812 63.648438 37.632812 63.71875 C 37.632812 63.753906 37.738281 63.820312 37.871094 63.871094 C 38.105469 63.960938 38.347656 64.320312 38.34375 64.59375 C 38.34375 64.65625 38.414062 64.832031 38.5 64.96875 C 38.726562 65.328125 38.898438 65.710938 39.128906 66.386719 C 39.355469 67.042969 39.375 67.222656 39.234375 67.488281 C 39.175781 67.585938 39.113281 67.78125 39.089844 67.917969 C 39.023438 68.226562 36.5625 73.023438 36.183594 73.566406 C 36.039062 73.78125 35.894531 74.039062 35.863281 74.140625 C 35.78125 74.398438 35.476562 74.984375 35.207031 75.390625 C 34.894531 75.863281 34.617188 76.335938 34.476562 76.636719 C 34.421875 76.769531 34.222656 77.042969 34.050781 77.242188 C 33.882812 77.441406 33.65625 77.734375 33.554688 77.890625 C 33.453125 78.050781 33.199219 78.335938 32.996094 78.535156 C 32.792969 78.726562 32.628906 78.910156 32.628906 78.949219 C 32.625 79.078125 31.863281 80.105469 31.398438 80.605469 C 31.132812 80.898438 30.847656 81.253906 30.769531 81.402344 C 30.695312 81.554688 30.21875 82.074219 29.71875 82.566406 C 29.21875 83.058594 28.722656 83.585938 28.621094 83.742188 C 28.425781 84.050781 28.171875 84.320312 27.761719 84.667969 C 27.621094 84.785156 27.417969 85.011719 27.316406 85.167969 C 27.214844 85.324219 26.992188 85.597656 26.824219 85.769531 C 26.65625 85.945312 26.382812 86.253906 26.214844 86.453125 C 26.054688 86.652344 25.757812 86.996094 25.570312 87.210938 C 25.234375 87.59375 25.082031 87.792969 24.386719 88.789062 C 24.195312 89.058594 24.015625 89.273438 23.988281 89.273438 C 23.949219 89.273438 23.921875 89.316406 23.921875 89.367188 C 23.921875 89.421875 23.855469 89.523438 23.777344 89.59375 C 23.695312 89.664062 23.628906 89.75 23.628906 89.78125 C 23.628906 89.808594 23.441406 90.085938 23.207031 90.394531 C 22.984375 90.699219 22.683594 91.164062 22.554688 91.429688 C 22.421875 91.695312 22.25 91.945312 22.175781 91.988281 C 21.980469 92.085938 21.996094 92.195312 22.230469 92.492188 C 22.34375 92.628906 22.449219 92.800781 22.476562 92.867188 C 22.511719 92.960938 22.597656 92.996094 22.824219 92.996094 L 23.117188 93 L 23.070312 93.300781 C 23.011719 93.738281 23.011719 93.722656 23.085938 94.042969 C 23.242188 94.644531 23.105469 95.65625 22.875 95.65625 C 22.75 95.65625 22.640625 95.925781 22.691406 96.121094 C 22.710938 96.222656 22.769531 96.300781 22.804688 96.300781 C 22.898438 96.300781 23.175781 96.613281 23.367188 96.914062 C 23.523438 97.167969 23.539062 97.757812 23.402344 98.027344 C 23.328125 98.179688 23.019531 98.386719 22.742188 98.476562 C 22.6875 98.496094 22.835938 98.84375 23.167969 99.464844 C 23.21875 99.566406 23.332031 99.796875 23.414062 99.988281 C 23.507812 100.175781 23.636719 100.386719 23.707031 100.453125 C 23.777344 100.515625 23.835938 100.667969 23.832031 100.789062 C 23.832031 100.910156 23.894531 101.105469 23.972656 101.230469 C 24.050781 101.351562 24.113281 101.566406 24.113281 101.71875 C 24.113281 101.875 24.160156 102.105469 24.226562 102.242188 C 24.34375 102.503906 24.902344 103.101562 25.207031 103.3125 C 25.308594 103.378906 25.566406 103.597656 25.773438 103.792969 C 26.179688 104.175781 26.894531 104.734375 26.980469 104.734375 C 27.015625 104.734375 27.136719 104.886719 27.25 105.074219 C 27.433594 105.371094 27.464844 105.480469 27.460938 105.925781 C 27.457031 106.203125 27.417969 106.46875 27.382812 106.503906 C 27.339844 106.546875 27.273438 106.769531 27.234375 107 C 27.144531 107.539062 27.035156 107.6875 26.546875 107.964844 C 26.253906 108.125 26.167969 108.171875 25.847656 108.171875 C 25.722656 108.171875 25.5625 108.164062 25.335938 108.15625 C 24.847656 108.128906 24.460938 108.078125 24.351562 108.019531 C 24.253906 107.960938 24.03125 107.894531 23.851562 107.863281 C 23.355469 107.789062 22.6875 107.589844 22.378906 107.429688 C 22.222656 107.347656 22.035156 107.28125 21.964844 107.28125 C 21.894531 107.28125 21.648438 107.164062 21.425781 107.027344 C 21.199219 106.894531 20.867188 106.742188 20.675781 106.691406 C 20.445312 106.632812 20.253906 106.523438 20.066406 106.320312 C 19.875 106.125 19.695312 106.015625 19.472656 105.964844 C 19.050781 105.867188 18.855469 105.722656 18.738281 105.425781 C 18.625 105.160156 18.316406 104.957031 18.015625 104.953125 C 17.769531 104.953125 17.5625 104.835938 17.355469 104.589844 C 17.261719 104.472656 17.011719 104.285156 16.792969 104.160156 C 16.578125 104.03125 16.375 103.878906 16.355469 103.8125 C 16.335938 103.753906 16.15625 103.632812 15.96875 103.542969 C 15.785156 103.464844 15.476562 103.246094 15.28125 103.066406 C 15.097656 102.882812 14.789062 102.671875 14.605469 102.609375 C 14.21875 102.453125 13.402344 101.9375 13.402344 101.835938 C 13.402344 101.800781 13.058594 101.605469 12.628906 101.394531 C 12.207031 101.1875 11.75 100.914062 11.613281 100.78125 C 11.476562 100.652344 11.113281 100.382812 10.796875 100.1875 C 10.492188 99.992188 10.183594 99.746094 10.105469 99.644531 C 10.035156 99.542969 9.707031 99.265625 9.371094 99.042969 C 8.347656 98.34375 7.863281 97.738281 7.867188 97.167969 C 7.871094 96.859375 7.898438 96.804688 8.160156 96.582031 C 8.320312 96.449219 8.527344 96.320312 8.628906 96.292969 C 8.730469 96.273438 8.867188 96.238281 8.929688 96.214844 C 9.003906 96.203125 9.0625 96.125 9.0625 96.039062 C 9.0625 95.957031 9.113281 95.808594 9.164062 95.707031 C 9.222656 95.601562 9.332031 95.394531 9.398438 95.242188 C 9.464844 95.09375 9.652344 94.863281 9.8125 94.742188 C 9.964844 94.613281 10.246094 94.300781 10.421875 94.03125 C 10.8125 93.457031 12.167969 92.089844 12.582031 91.847656 C 12.738281 91.757812 13.066406 91.492188 13.304688 91.273438 C 13.871094 90.746094 14.046875 90.632812 14.339844 90.632812 C 14.34375 90.632812 14.347656 90.632812 14.351562 90.632812 C 14.359375 90.632812 14.367188 90.632812 14.371094 90.632812 C 14.648438 90.632812 14.714844 90.589844 14.847656 90.351562 C 14.898438 90.25 15.199219 89.835938 15.511719 89.421875 C 15.824219 89.007812 16.179688 88.480469 16.308594 88.242188 C 16.441406 88.007812 16.667969 87.679688 16.8125 87.515625 C 17.210938 87.058594 17.398438 86.800781 17.402344 86.699219 C 17.402344 86.652344 17.445312 86.558594 17.496094 86.5 C 17.582031 86.394531 18.304688 85.222656 18.574219 84.742188 C 18.851562 84.25 19.585938 82.773438 19.585938 82.71875 C 19.589844 82.675781 19.734375 82.476562 19.90625 82.269531 C 20.082031 82.054688 20.25 81.804688 20.277344 81.703125 C 20.308594 81.601562 20.386719 81.394531 20.460938 81.238281 C 20.738281 80.636719 20.820312 80.4375 20.960938 79.984375 C 21.042969 79.726562 21.128906 79.355469 21.160156 79.160156 C 21.191406 78.960938 21.257812 78.695312 21.316406 78.558594 C 21.375 78.429688 21.417969 78.230469 21.421875 78.113281 C 21.421875 77.804688 21.761719 76.890625 22.199219 76.007812 C 22.292969 75.808594 22.375 75.59375 22.375 75.53125 C 22.375 75.464844 22.410156 75.386719 22.453125 75.363281 C 22.492188 75.335938 22.609375 75.136719 22.710938 74.914062 C 22.8125 74.683594 22.921875 74.457031 22.957031 74.398438 C 22.996094 74.34375 23.125 74.121094 23.25 73.921875 C 23.375 73.714844 23.535156 73.507812 23.605469 73.457031 C 23.671875 73.40625 23.816406 73.222656 23.917969 73.042969 C 24.195312 72.578125 25.566406 70.921875 25.984375 70.542969 C 26.332031 70.222656 26.660156 69.789062 26.660156 69.625 C 26.664062 69.480469 26.015625 69.246094 25.34375 69.140625 C 25.046875 69.089844 24.777344 69.058594 24.683594 69.058594 C 24.667969 69.058594 24.65625 69.058594 24.652344 69.0625 C 24.648438 69.0625 24.632812 69.066406 24.613281 69.066406 C 24.492188 69.066406 24.140625 69.035156 23.746094 68.984375 C 23 68.882812 14.464844 68.589844 11.804688 68.566406 L 11.070312 68.5625 L 11.074219 68.355469 C 11.074219 68.144531 10.953125 68.058594 10.492188 67.953125 L 10.3125 67.917969 L 10.320312 69.980469 C 10.324219 71.113281 10.300781 72.292969 10.277344 72.601562 C 10.214844 73.25 10.144531 73.382812 9.527344 73.382812 C 9.4375 73.382812 9.332031 73.378906 9.214844 73.375 C 9.035156 73.367188 8.890625 73.363281 8.777344 73.363281 C 8.320312 73.363281 8.300781 73.441406 8.300781 73.789062 C 8.296875 73.984375 8.230469 74.328125 8.15625 74.550781 C 8.074219 74.78125 7.992188 75.117188 7.964844 75.304688 C 7.941406 75.488281 7.890625 75.660156 7.847656 75.683594 C 7.808594 75.710938 7.78125 75.820312 7.78125 75.925781 C 7.777344 76.136719 7.394531 77.339844 7.226562 77.652344 C 7.117188 77.867188 6.851562 78.546875 6.785156 78.800781 C 6.765625 78.898438 6.714844 79.042969 6.675781 79.121094 C 6.640625 79.199219 6.515625 79.535156 6.390625 79.875 C 6.117188 80.640625 5.804688 81.390625 5.714844 81.476562 C 5.679688 81.519531 5.652344 81.589844 5.652344 81.648438 C 5.648438 81.734375 5.378906 82.320312 5.210938 82.59375 C 5.175781 82.648438 5.042969 82.945312 4.914062 83.238281 C 4.78125 83.53125 4.582031 83.96875 4.472656 84.203125 C 4.363281 84.4375 4.203125 84.839844 4.113281 85.097656 C 3.902344 85.722656 3.542969 86.464844 3.421875 86.558594 C 3.363281 86.601562 3.230469 86.871094 3.128906 87.160156 C 3.023438 87.453125 2.804688 87.886719 2.652344 88.132812 C 2.492188 88.382812 2.363281 88.609375 2.363281 88.652344 C 2.363281 88.691406 2.246094 88.902344 2.105469 89.132812 C 1.96875 89.363281 1.851562 89.582031 1.851562 89.625 C 1.851562 89.664062 1.597656 90.0625 1.285156 90.511719 C 0.976562 90.960938 0.6875 91.382812 0.652344 91.449219 C -0.15625 92.714844 -1.113281 93.804688 -1.667969 94.066406 C -1.828125 94.144531 -1.972656 94.230469 -1.996094 94.25 C -2.015625 94.277344 -2.152344 94.355469 -2.296875 94.425781 C -2.449219 94.503906 -2.773438 94.660156 -3.019531 94.78125 C -3.429688 94.984375 -4.363281 95.300781 -4.539062 95.300781 C -4.597656 95.300781 -6.039062 95.992188 -6.726562 96.347656 C -6.796875 96.382812 -7.007812 96.472656 -7.1875 96.542969 C -7.851562 96.796875 -8.167969 96.945312 -8.449219 97.136719 C -8.957031 97.476562 -9.546875 97.847656 -9.589844 97.847656 C -9.640625 97.847656 -9.96875 98.058594 -10.539062 98.480469 C -10.777344 98.648438 -11.136719 98.890625 -11.347656 99.011719 C -11.554688 99.132812 -11.925781 99.378906 -12.164062 99.566406 C -12.410156 99.757812 -12.617188 99.90625 -12.632812 99.90625 C -12.648438 99.90625 -13.109375 100.203125 -13.667969 100.566406 C -14.214844 100.921875 -14.84375 101.296875 -15.058594 101.394531 C -15.277344 101.496094 -15.523438 101.644531 -15.601562 101.730469 C -15.679688 101.816406 -15.976562 102 -16.253906 102.148438 C -16.535156 102.289062 -16.859375 102.457031 -16.972656 102.53125 C -17.097656 102.601562 -17.277344 102.671875 -17.386719 102.699219 C -17.484375 102.71875 -17.890625 102.945312 -18.28125 103.203125 C -18.671875 103.457031 -19.007812 103.664062 -19.03125 103.664062 C -19.058594 103.664062 -19.320312 103.839844 -19.617188 104.054688 C -19.914062 104.265625 -20.453125 104.59375 -20.824219 104.777344 C -21.292969 105.011719 -21.550781 105.179688 -21.667969 105.34375 C -21.753906 105.480469 -22.132812 105.835938 -22.507812 106.136719 C -22.882812 106.441406 -23.339844 106.832031 -23.519531 107.011719 C -24.324219 107.765625 -24.796875 108.1875 -24.953125 108.285156 C -25.183594 108.433594 -26.785156 109.996094 -27.394531 110.671875 C -27.953125 111.292969 -28.113281 111.542969 -28.1875 111.9375 L -28.242188 112.195312 L -27.921875 112.132812 C -27.71875 112.097656 -27.527344 112.078125 -27.367188 112.078125 C -27.140625 112.078125 -26.972656 112.113281 -26.902344 112.191406 C -26.839844 112.25 -26.769531 112.429688 -26.75 112.582031 L -26.707031 112.851562 L -26.441406 112.761719 C -26.296875 112.714844 -26.074219 112.613281 -25.9375 112.542969 C -25.828125 112.492188 -25.730469 112.46875 -25.640625 112.46875 C -25.324219 112.46875 -25.15625 112.757812 -25.445312 113.042969 C -25.539062 113.136719 -25.777344 113.269531 -25.972656 113.339844 C -26.171875 113.410156 -26.382812 113.507812 -26.441406 113.550781 C -26.605469 113.679688 -27.261719 113.796875 -27.828125 113.800781 C -27.839844 113.800781 -27.855469 113.800781 -27.867188 113.800781 C -28.222656 113.800781 -28.410156 113.84375 -28.5625 113.9375 C -28.6875 114.007812 -28.832031 114.09375 -28.886719 114.113281 C -29.875 114.515625 -29.90625 114.546875 -30.15625 115.226562 C -30.21875 115.410156 -30.433594 115.828125 -30.636719 116.148438 C -30.832031 116.46875 -30.992188 116.75 -30.992188 116.769531 C -30.992188 116.792969 -31.109375 117.042969 -31.25 117.328125 C -31.386719 117.613281 -31.503906 117.902344 -31.503906 117.964844 C -31.507812 118.109375 -31.964844 118.867188 -32.125 119.003906 C -32.226562 119.085938 -32.671875 119.925781 -32.671875 120.039062 C -32.671875 120.0625 -32.757812 120.269531 -32.863281 120.488281 C -33.191406 121.191406 -33.476562 121.878906 -33.703125 122.542969 C -33.828125 122.894531 -33.953125 123.253906 -33.992188 123.332031 C -34.445312 124.378906 -34.757812 124.863281 -35.292969 125.332031 C -35.472656 125.488281 -35.691406 125.683594 -35.785156 125.765625 C -35.925781 125.898438 -36.242188 125.96875 -36.636719 125.96875 C -36.785156 125.96875 -36.945312 125.957031 -37.109375 125.9375 C -37.710938 125.859375 -38.40625 125.410156 -39.03125 124.6875 C -39.546875 124.09375 -39.765625 123.699219 -39.855469 123.199219 C -39.882812 123.050781 -39.945312 122.863281 -39.996094 122.785156 C -40.058594 122.695312 -40.09375 122.4375 -40.089844 122.070312 C -40.085938 121.613281 -40.117188 121.46875 -40.222656 121.351562 C -40.492188 121.042969 -40.59375 120.292969 -40.425781 119.8125 C -40.367188 119.640625 -40.375 119.519531 -40.464844 119.246094 C -40.605469 118.828125 -40.558594 118.476562 -40.3125 117.976562 C -40.203125 117.746094 -40.15625 117.582031 -40.191406 117.511719 C -40.335938 117.238281 -40.34375 116.796875 -40.226562 116.527344 C -40.15625 116.371094 -40.074219 115.980469 -40.042969 115.652344 C -40.003906 115.320312 -39.9375 115.007812 -39.886719 114.941406 C -39.820312 114.871094 -39.773438 114.5625 -39.757812 114.101562 C -39.738281 113.707031 -39.691406 113.304688 -39.648438 113.214844 C -39.582031 113.09375 -39.582031 112.992188 -39.644531 112.8125 C -39.75 112.507812 -39.742188 111.46875 -39.632812 111.222656 C -39.566406 111.082031 -39.566406 110.9375 -39.636719 110.585938 C -39.703125 110.210938 -39.703125 110.003906 -39.605469 109.3125 C -39.40625 107.988281 -39.363281 107.808594 -39.085938 107.230469 C -38.632812 106.296875 -38.386719 106.15625 -36.875 105.96875 C -36.15625 105.871094 -35.480469 105.683594 -34.929688 105.421875 C -34.554688 105.246094 -34.457031 105.230469 -33.167969 105.191406 C -30.832031 105.128906 -30.449219 105.039062 -29.855469 104.425781 C -29.332031 103.886719 -29.03125 103.628906 -28.753906 103.496094 C -28.648438 103.4375 -28.34375 103.160156 -28.089844 102.882812 C -27.835938 102.605469 -27.589844 102.375 -27.539062 102.375 C -27.496094 102.375 -27.367188 102.285156 -27.25 102.164062 C -27.140625 102.050781 -26.9375 101.921875 -26.808594 101.878906 C -26.644531 101.824219 -26.484375 101.667969 -26.238281 101.308594 C -25.84375 100.722656 -25.597656 100.472656 -24.949219 99.992188 C -24.6875 99.792969 -24.46875 99.601562 -24.46875 99.5625 C -24.460938 99.449219 -23.785156 98.597656 -23.46875 98.308594 C -23.316406 98.164062 -22.945312 97.792969 -22.648438 97.488281 C -22.351562 97.179688 -22.011719 96.855469 -21.890625 96.753906 C -21.441406 96.382812 -20.390625 95.273438 -20.15625 94.929688 C -20.019531 94.730469 -19.722656 94.394531 -19.488281 94.171875 C -19.25 93.953125 -18.9375 93.601562 -18.785156 93.382812 C -18.386719 92.816406 -17.597656 92.054688 -17.214844 91.863281 C -17.035156 91.777344 -16.644531 91.488281 -16.355469 91.230469 C -16.058594 90.96875 -15.601562 90.65625 -15.34375 90.527344 C -15.082031 90.402344 -14.835938 90.265625 -14.792969 90.214844 C -14.757812 90.167969 -14.417969 90.003906 -14.058594 89.847656 C -13.691406 89.699219 -13.300781 89.507812 -13.191406 89.4375 C -13.078125 89.367188 -12.78125 89.203125 -12.519531 89.078125 C -11.988281 88.816406 -11.675781 88.640625 -11.25 88.347656 C -11.085938 88.234375 -10.796875 88.113281 -10.609375 88.074219 C -10.414062 88.03125 -10.148438 87.910156 -10.003906 87.796875 C -9.664062 87.542969 -9.511719 87.464844 -9.195312 87.410156 C -8.855469 87.355469 -8.328125 87.011719 -8.109375 86.71875 C -7.929688 86.46875 -7.824219 85.933594 -7.671875 84.539062 C -7.632812 84.183594 -7.5625 83.78125 -7.527344 83.644531 C -7.488281 83.507812 -7.4375 83.25 -7.40625 83.070312 C -7.382812 82.890625 -7.316406 82.605469 -7.257812 82.425781 C -7.207031 82.246094 -7.136719 81.652344 -7.105469 81.097656 C -7.003906 79.125 -6.894531 77.984375 -6.789062 77.730469 C -6.730469 77.597656 -6.679688 77.308594 -6.679688 77.101562 C -6.675781 76.894531 -6.636719 76.589844 -6.59375 76.433594 C -6.558594 76.277344 -6.476562 75.890625 -6.421875 75.574219 C -6.363281 75.257812 -6.265625 74.769531 -6.191406 74.5 C -6.125 74.21875 -6.027344 73.816406 -5.976562 73.601562 C -5.910156 73.328125 -5.882812 72.785156 -5.890625 71.851562 C -5.894531 70.773438 -5.878906 70.449219 -5.792969 70.292969 C -5.644531 70.007812 -5.609375 66.101562 -5.757812 66.042969 C -5.832031 66.011719 -5.863281 65.769531 -5.894531 65.148438 C -5.972656 63.71875 -5.984375 63.554688 -6.09375 62.082031 C -6.191406 60.695312 -6.1875 60.308594 -6.03125 59.273438 C -5.925781 58.578125 -5.597656 57.304688 -5.476562 57.109375 C -5.417969 57.023438 -5.371094 56.859375 -5.371094 56.746094 C -5.367188 56.464844 -4.980469 55.441406 -4.652344 54.875 C -4.492188 54.582031 -4.105469 54.121094 -3.644531 53.65625 C -2.96875 52.972656 -2.855469 52.886719 -2.378906 52.703125 L -1.851562 52.507812 L -1.386719 51.726562 C -0.914062 50.933594 -0.746094 50.753906 -0.0585938 50.308594 C 0.148438 50.171875 0.554688 49.832031 0.84375 49.554688 C 1.132812 49.277344 1.503906 48.964844 1.675781 48.847656 C 1.851562 48.742188 2.066406 48.585938 2.167969 48.515625 C 2.269531 48.445312 2.472656 48.324219 2.617188 48.261719 C 2.96875 48.089844 3.46875 47.6875 3.46875 47.5625 C 3.46875 47.507812 3.5 47.40625 3.542969 47.335938 C 3.710938 47.042969 4.273438 45.796875 4.273438 45.71875 C 4.273438 45.675781 4.324219 45.558594 4.390625 45.472656 C 4.449219 45.386719 4.601562 45.039062 4.71875 44.695312 C 5 43.914062 5.3125 43.253906 5.515625 43.046875 C 5.785156 42.761719 6.210938 41.4375 6.289062 40.625 C 6.3125 40.347656 6.382812 39.929688 6.441406 39.695312 C 6.5 39.457031 6.566406 39.148438 6.589844 39.011719 C 6.621094 38.875 6.703125 38.589844 6.78125 38.382812 C 6.855469 38.175781 6.921875 37.917969 6.921875 37.808594 C 6.925781 37.703125 6.96875 37.472656 7.027344 37.292969 C 7.257812 36.578125 7.359375 36.160156 7.40625 35.789062 C 7.429688 35.574219 7.496094 35.292969 7.554688 35.179688 C 7.773438 34.714844 7.90625 34.226562 7.9375 33.746094 C 7.964844 33.464844 8.007812 33.199219 8.050781 33.148438 C 8.109375 33.085938 8.074219 33.0625 7.902344 33.0625 C 7.777344 33.0625 7.679688 33.03125 7.679688 33.003906 C 7.679688 32.96875 7.628906 32.882812 7.574219 32.800781 C 7.542969 32.765625 7.523438 32.742188 7.511719 32.742188 C 7.476562 32.742188 7.476562 32.859375 7.484375 33.195312 C 7.496094 33.652344 7.457031 33.839844 7.28125 33.839844 C 7.195312 33.839844 7.078125 33.792969 6.917969 33.714844 C 6.546875 33.535156 6.3125 33.195312 6.3125 32.847656 C 6.316406 32.710938 6.308594 32.652344 6.269531 32.652344 C 6.246094 32.652344 6.21875 32.667969 6.179688 32.691406 C 6.09375 32.734375 6 32.757812 5.914062 32.757812 C 5.792969 32.757812 5.683594 32.714844 5.617188 32.628906 C 5.375 32.324219 5.230469 31.894531 5.265625 31.628906 C 5.359375 31.046875 5.417969 30.847656 5.539062 30.710938 C 5.613281 30.632812 5.695312 30.410156 5.722656 30.210938 C 5.769531 29.878906 5.835938 29.714844 6.214844 28.914062 C 6.289062 28.75 6.542969 28.457031 6.78125 28.25 C 7.019531 28.042969 7.214844 27.835938 7.214844 27.777344 C 7.214844 27.730469 7.296875 27.636719 7.398438 27.574219 C 7.636719 27.417969 7.628906 27.324219 7.363281 27.234375 C 7.199219 27.167969 7.148438 27.109375 7.152344 26.96875 C 7.152344 26.859375 7.203125 26.710938 7.261719 26.636719 C 7.320312 26.558594 7.371094 26.386719 7.371094 26.257812 C 7.371094 26.128906 7.402344 26.019531 7.4375 26.019531 C 7.472656 26.019531 7.605469 25.855469 7.734375 25.664062 C 7.875 25.457031 8.019531 25.308594 8.097656 25.308594 C 8.175781 25.308594 8.265625 25.207031 8.335938 25.039062 C 8.445312 24.773438 8.445312 24.773438 8.265625 24.75 C 8.175781 24.734375 8.082031 24.683594 8.058594 24.625 C 7.996094 24.460938 6.96875 24.242188 5.914062 24.179688 C 5.476562 24.152344 4.945312 24.097656 4.730469 24.0625 C 4.511719 24.015625 3.960938 23.957031 3.507812 23.910156 C 3.054688 23.871094 2.34375 23.761719 1.929688 23.679688 C 0.800781 23.457031 -0.0664062 23.300781 -0.519531 23.230469 C -0.734375 23.199219 -0.980469 23.140625 -1.058594 23.105469 C -1.128906 23.0625 -1.378906 23.007812 -1.609375 22.980469 C -1.832031 22.957031 -2.15625 22.875 -2.320312 22.808594 C -2.558594 22.714844 -2.886719 22.683594 -4.023438 22.671875 L -5.433594 22.65625 L -6.332031 22.964844 C -7.320312 23.292969 -7.59375 23.414062 -7.8125 23.605469 C -7.890625 23.675781 -8.1875 23.820312 -8.460938 23.917969 C -8.742188 24.023438 -9.074219 24.15625 -9.203125 24.214844 C -9.332031 24.261719 -9.476562 24.3125 -9.527344 24.3125 C -9.578125 24.316406 -9.742188 24.375 -9.902344 24.453125 C -10.0625 24.53125 -10.226562 24.585938 -10.269531 24.59375 C -10.3125 24.59375 -10.449219 24.640625 -10.574219 24.707031 C -10.960938 24.886719 -12.976562 25.429688 -13.292969 25.429688 C -13.292969 25.429688 -13.296875 25.429688 -13.296875 25.429688 C -13.378906 25.429688 -13.6875 25.492188 -13.980469 25.570312 C -14.269531 25.644531 -14.667969 25.707031 -14.863281 25.707031 C -14.867188 25.707031 -14.871094 25.707031 -14.871094 25.707031 C -14.878906 25.707031 -14.882812 25.707031 -14.886719 25.707031 C -15.082031 25.707031 -15.269531 25.734375 -15.3125 25.773438 C -15.40625 25.867188 -16.320312 26.105469 -17.070312 26.226562 C -17.40625 26.28125 -17.859375 26.371094 -18.078125 26.429688 C -18.292969 26.484375 -18.667969 26.558594 -18.90625 26.59375 C -19.140625 26.636719 -19.464844 26.699219 -19.625 26.738281 C -19.78125 26.78125 -20.019531 26.8125 -20.164062 26.8125 C -20.167969 26.8125 -20.167969 26.8125 -20.171875 26.8125 C -20.171875 26.8125 -20.171875 26.8125 -20.175781 26.8125 C -20.40625 26.8125 -20.808594 26.976562 -21.261719 27.265625 C -21.355469 27.324219 -21.65625 27.449219 -21.929688 27.554688 C -22.210938 27.660156 -22.566406 27.800781 -22.722656 27.871094 C -22.882812 27.941406 -23.046875 28.011719 -23.085938 28.019531 C -23.480469 28.160156 -24.320312 28.722656 -24.550781 28.992188 C -24.878906 29.390625 -25.117188 29.585938 -25.550781 29.78125 C -25.628906 29.816406 -26.003906 29.988281 -26.378906 30.164062 C -26.753906 30.332031 -27.152344 30.507812 -27.257812 30.550781 C -27.382812 30.601562 -27.566406 30.628906 -27.734375 30.628906 C -27.886719 30.628906 -28.023438 30.609375 -28.09375 30.566406 C -28.113281 30.554688 -28.144531 30.546875 -28.179688 30.546875 C -28.234375 30.546875 -28.308594 30.566406 -28.378906 30.601562 C -28.480469 30.648438 -28.933594 30.71875 -29.382812 30.757812 C -29.898438 30.796875 -30.257812 30.859375 -30.367188 30.929688 C -30.472656 31 -30.691406 31.039062 -30.914062 31.039062 C -30.917969 31.039062 -30.925781 31.039062 -30.929688 31.039062 C -31.339844 31.039062 -31.488281 30.941406 -31.578125 30.617188 C -31.613281 30.515625 -31.664062 30.46875 -31.757812 30.46875 C -31.835938 30.46875 -31.945312 30.5 -32.105469 30.566406 C -32.238281 30.621094 -32.546875 30.667969 -32.792969 30.667969 C -32.800781 30.667969 -32.804688 30.667969 -32.808594 30.667969 C -33.203125 30.664062 -33.289062 30.632812 -33.578125 30.410156 C -34.078125 30.023438 -34.230469 29.339844 -33.894531 28.984375 C -33.738281 28.820312 -33.082031 28.511719 -32.886719 28.511719 C -32.832031 28.511719 -32.667969 28.476562 -32.527344 28.4375 C -32.230469 28.359375 -32.171875 28.214844 -32.355469 27.96875 C -32.519531 27.746094 -32.492188 27.0625 -32.304688 26.835938 C -32.183594 26.679688 -32.160156 26.585938 -32.195312 26.355469 C -32.253906 25.96875 -32.121094 25.542969 -31.898438 25.367188 L -31.71875 25.226562 L -31.894531 24.949219 C -32.082031 24.683594 -32.140625 24.171875 -32.03125 23.886719 C -31.894531 23.550781 -30.757812 23.296875 -29.71875 23.296875 C -29.402344 23.296875 -29.09375 23.320312 -28.828125 23.371094 C -28.613281 23.417969 -27.921875 23.515625 -27.292969 23.601562 L -26.140625 23.738281 L -25.636719 23.539062 C -25.363281 23.433594 -25.019531 23.324219 -24.882812 23.296875 C -24.558594 23.234375 -23.945312 23.035156 -23.441406 22.839844 C -22.589844 22.507812 -20.996094 21.980469 -20.425781 21.851562 C -20.097656 21.78125 -19.59375 21.605469 -19.308594 21.472656 C -18.632812 21.152344 -17.652344 20.789062 -16.808594 20.527344 C -16.433594 20.414062 -15.902344 20.242188 -15.628906 20.140625 C -15.355469 20.042969 -15.003906 19.960938 -14.851562 19.960938 C -14.851562 19.960938 -14.851562 19.960938 -14.847656 19.960938 C -14.847656 19.960938 -14.84375 19.960938 -14.84375 19.960938 C -14.484375 19.960938 -13.957031 19.730469 -13.90625 19.542969 C -13.867188 19.386719 -13.320312 19.089844 -12.84375 18.980469 C -12.664062 18.929688 -12.359375 18.816406 -12.160156 18.726562 C -11.820312 18.5625 -11.445312 18.449219 -10.539062 18.226562 C -10.019531 18.101562 -9.59375 17.984375 -8.59375 17.683594 C -8.136719 17.542969 -7.484375 17.367188 -7.128906 17.292969 C -6.785156 17.214844 -6.289062 17.054688 -6.011719 16.941406 C -5.539062 16.726562 -4.457031 16.542969 -3.8125 16.542969 C -3.714844 16.542969 -3.625 16.550781 -3.550781 16.558594 C -2.933594 16.644531 -0.796875 16.726562 0.363281 16.726562 C 0.71875 16.726562 0.984375 16.71875 1.082031 16.703125 C 2.066406 16.539062 2.652344 16.5 4.9375 16.5 C 5.25 16.5 5.59375 16.5 5.972656 16.503906 C 6.75 16.507812 7.363281 16.511719 7.847656 16.511719 C 9.832031 16.511719 9.6875 16.421875 9.867188 15.792969 C 9.976562 15.398438 10.066406 15.242188 10.355469 14.949219 C 10.550781 14.757812 10.761719 14.515625 10.828125 14.421875 C 10.890625 14.328125 11.03125 14.214844 11.128906 14.171875 C 11.476562 14.023438 11.832031 13.746094 11.957031 13.53125 C 12.042969 13.390625 12.125 12.988281 12.195312 12.414062 C 12.394531 10.707031 12.585938 10.023438 13.050781 9.3125 C 13.191406 9.101562 13.371094 8.746094 13.46875 8.507812 C 13.6875 7.957031 14.09375 7.300781 14.304688 7.136719 C 14.398438 7.066406 14.550781 6.878906 14.652344 6.722656 C 14.835938 6.4375 15.101562 6.28125 16.335938 5.722656 C 16.75 5.539062 17.363281 5.445312 17.949219 5.445312 C 18.574219 5.445312 19.171875 5.550781 19.476562 5.753906 C 19.625 5.855469 19.796875 5.9375 19.863281 5.9375 C 19.929688 5.9375 20.144531 6.03125 20.335938 6.15625 C 20.523438 6.273438 20.695312 6.375 20.714844 6.375 C 20.796875 6.375 21.019531 6.089844 21.179688 5.773438 C 21.421875 5.316406 21.59375 5.167969 22.097656 4.984375 C 22.328125 4.902344 22.65625 4.746094 22.804688 4.640625 C 22.957031 4.539062 23.125 4.453125 23.167969 4.453125 C 23.21875 4.453125 23.476562 4.335938 23.75 4.195312 L 24.257812 3.933594 L 25.515625 3.925781 C 25.613281 3.925781 25.707031 3.925781 25.796875 3.925781 Z M 25.796875 3.925781 " fill-opacity="1" fill-rule="nonzero"/></g><g fill="#000000" fill-opacity="1"><g transform="translate(47.528078, 52.182862)"><g><path d="M 7.828125 -8.96875 C 7.867188 -9.164062 7.890625 -9.4375 7.890625 -9.78125 C 7.890625 -9.976562 7.875 -10.171875 7.84375 -10.359375 C 7.820312 -10.554688 7.773438 -10.726562 7.703125 -10.875 C 7.640625 -11.03125 7.539062 -11.148438 7.40625 -11.234375 C 7.28125 -11.328125 7.109375 -11.375 6.890625 -11.375 C 6.648438 -11.375 6.429688 -11.316406 6.234375 -11.203125 C 6.035156 -11.097656 5.859375 -10.960938 5.703125 -10.796875 C 5.554688 -10.628906 5.441406 -10.4375 5.359375 -10.21875 C 5.273438 -10 5.234375 -9.773438 5.234375 -9.546875 C 5.234375 -9.191406 5.320312 -8.921875 5.5 -8.734375 C 5.675781 -8.554688 5.910156 -8.40625 6.203125 -8.28125 C 6.492188 -8.164062 6.820312 -8.066406 7.1875 -7.984375 C 7.5625 -7.910156 7.945312 -7.820312 8.34375 -7.71875 C 8.675781 -7.625 9.007812 -7.503906 9.34375 -7.359375 C 9.675781 -7.210938 9.96875 -7.015625 10.21875 -6.765625 C 10.476562 -6.523438 10.6875 -6.207031 10.84375 -5.8125 C 11.007812 -5.425781 11.09375 -4.941406 11.09375 -4.359375 C 11.09375 -3.515625 10.925781 -2.804688 10.59375 -2.234375 C 10.257812 -1.671875 9.800781 -1.207031 9.21875 -0.84375 C 8.632812 -0.488281 7.941406 -0.234375 7.140625 -0.078125 C 6.335938 0.078125 5.46875 0.15625 4.53125 0.15625 C 3.570312 0.15625 2.789062 0.09375 2.1875 -0.03125 C 1.59375 -0.15625 1.125 -0.289062 0.78125 -0.4375 C 0.363281 -0.613281 0.0546875 -0.8125 -0.140625 -1.03125 L 0.53125 -3.75 L 4.03125 -3.75 C 4.019531 -3.632812 4.003906 -3.472656 3.984375 -3.265625 C 3.972656 -3.066406 3.96875 -2.90625 3.96875 -2.78125 C 3.96875 -2.625 3.988281 -2.457031 4.03125 -2.28125 C 4.070312 -2.113281 4.132812 -1.957031 4.21875 -1.8125 C 4.3125 -1.664062 4.4375 -1.546875 4.59375 -1.453125 C 4.75 -1.359375 4.945312 -1.3125 5.1875 -1.3125 C 5.445312 -1.3125 5.679688 -1.367188 5.890625 -1.484375 C 6.097656 -1.609375 6.269531 -1.757812 6.40625 -1.9375 C 6.550781 -2.113281 6.660156 -2.3125 6.734375 -2.53125 C 6.804688 -2.75 6.84375 -2.96875 6.84375 -3.1875 C 6.84375 -3.476562 6.769531 -3.722656 6.625 -3.921875 C 6.488281 -4.117188 6.300781 -4.285156 6.0625 -4.421875 C 5.820312 -4.554688 5.546875 -4.671875 5.234375 -4.765625 C 4.921875 -4.867188 4.597656 -4.976562 4.265625 -5.09375 C 3.953125 -5.1875 3.617188 -5.296875 3.265625 -5.421875 C 2.921875 -5.554688 2.601562 -5.742188 2.3125 -5.984375 C 2.019531 -6.222656 1.773438 -6.523438 1.578125 -6.890625 C 1.390625 -7.253906 1.296875 -7.71875 1.296875 -8.28125 C 1.296875 -9.132812 1.507812 -9.847656 1.9375 -10.421875 C 2.363281 -10.992188 2.90625 -11.457031 3.5625 -11.8125 C 4.21875 -12.175781 4.9375 -12.429688 5.71875 -12.578125 C 6.5 -12.734375 7.242188 -12.8125 7.953125 -12.8125 C 8.878906 -12.8125 9.675781 -12.703125 10.34375 -12.484375 C 11.007812 -12.265625 11.515625 -12.007812 11.859375 -11.71875 L 11.125 -8.96875 Z M 7.828125 -8.96875 "/></g></g></g><g fill="#000000" fill-opacity="1"><g transform="translate(59.195631, 52.182862)"><g><path d="M 2.6875 -12.625 L 11.046875 -12.625 L 10.734375 -11.109375 L 6.671875 -11.109375 L 5.84375 -7.28125 L 9.234375 -7.28125 L 8.921875 -5.78125 L 5.53125 -5.78125 L 4.609375 -1.53125 L 8.671875 -1.53125 L 8.375 0 L 0 0 Z M 2.6875 -12.625 "/></g></g></g><g fill="#000000" fill-opacity="1"><g transform="translate(69.193555, 52.182862)"><g><path d="M 2.6875 -12.625 L 7 -12.625 L 4.65625 -1.671875 L 8.6875 -1.671875 L 8.34375 0 L 0 0 Z M 2.6875 -12.625 "/></g></g></g><g fill="#000000" fill-opacity="1"><g transform="translate(78.774069, 52.182862)"><g><path d="M 2.6875 -12.625 L 7 -12.625 L 4.65625 -1.671875 L 8.6875 -1.671875 L 8.34375 0 L 0 0 Z M 2.6875 -12.625 "/></g></g></g><g fill="#000000" fill-opacity="1"><g transform="translate(88.354583, 52.182862)"><g><path d="M 7.734375 -4.765625 L 6.71875 0 L 2.40625 0 L 3.5 -5.109375 L 1.546875 -12.625 L 6.3125 -12.625 L 7.671875 -7.625 L 10.65625 -12.625 L 12.796875 -12.625 Z M 7.734375 -4.765625 "/></g></g></g><g fill="#000000" fill-opacity="1"><g transform="translate(99.684237, 52.182862)"><g/></g></g><g fill="#000000" fill-opacity="1"><g transform="translate(103.480666, 52.182862)"><g><path d="M 2.6875 -12.625 L 11.046875 -12.625 L 10.734375 -11.109375 L 6.65625 -11.109375 L 5.890625 -7.46875 L 9.28125 -7.46875 L 8.96875 -5.9375 L 5.5625 -5.9375 L 4.296875 0 L 0 0 Z M 2.6875 -12.625 "/></g></g></g><g fill="#000000" fill-opacity="1"><g transform="translate(113.240068, 52.182862)"><g><path d="M 4.296875 0 L 0 0 L 2.6875 -12.625 L 7 -12.625 Z M 4.296875 0 "/></g></g></g><g fill="#000000" fill-opacity="1"><g transform="translate(119.719833, 52.182862)"><g><path d="M 12.109375 -11.109375 L 8.90625 -11.109375 L 6.53125 0 L 2.25 0 L 4.609375 -11.109375 L 1.453125 -11.109375 L 1.8125 -12.625 L 12.4375 -12.625 Z M 12.109375 -11.109375 "/></g></g></g><g fill="#000000" fill-opacity="1"><g transform="translate(130.751336, 52.182862)"><g><path d="M 10.59375 0 L 5.9375 0 L 3.734375 -9.125 L 1.78125 0 L 0 0 L 2.6875 -12.625 L 7.4375 -12.625 L 9.515625 -3.375 L 11.484375 -12.625 L 13.3125 -12.625 Z M 10.59375 0 "/></g></g></g><g fill="#000000" fill-opacity="1"><g transform="translate(143.551863, 52.182862)"><g><path d="M 2.6875 -12.625 L 11.046875 -12.625 L 10.734375 -11.109375 L 6.671875 -11.109375 L 5.84375 -7.28125 L 9.234375 -7.28125 L 8.921875 -5.78125 L 5.53125 -5.78125 L 4.609375 -1.53125 L 8.671875 -1.53125 L 8.375 0 L 0 0 Z M 2.6875 -12.625 "/></g></g></g><g fill="#000000" fill-opacity="1"><g transform="translate(153.549791, 52.182862)"><g><path d="M 7.828125 -8.96875 C 7.867188 -9.164062 7.890625 -9.4375 7.890625 -9.78125 C 7.890625 -9.976562 7.875 -10.171875 7.84375 -10.359375 C 7.820312 -10.554688 7.773438 -10.726562 7.703125 -10.875 C 7.640625 -11.03125 7.539062 -11.148438 7.40625 -11.234375 C 7.28125 -11.328125 7.109375 -11.375 6.890625 -11.375 C 6.648438 -11.375 6.429688 -11.316406 6.234375 -11.203125 C 6.035156 -11.097656 5.859375 -10.960938 5.703125 -10.796875 C 5.554688 -10.628906 5.441406 -10.4375 5.359375 -10.21875 C 5.273438 -10 5.234375 -9.773438 5.234375 -9.546875 C 5.234375 -9.191406 5.320312 -8.921875 5.5 -8.734375 C 5.675781 -8.554688 5.910156 -8.40625 6.203125 -8.28125 C 6.492188 -8.164062 6.820312 -8.066406 7.1875 -7.984375 C 7.5625 -7.910156 7.945312 -7.820312 8.34375 -7.71875 C 8.675781 -7.625 9.007812 -7.503906 9.34375 -7.359375 C 9.675781 -7.210938 9.96875 -7.015625 10.21875 -6.765625 C 10.476562 -6.523438 10.6875 -6.207031 10.84375 -5.8125 C 11.007812 -5.425781 11.09375 -4.941406 11.09375 -4.359375 C 11.09375 -3.515625 10.925781 -2.804688 10.59375 -2.234375 C 10.257812 -1.671875 9.800781 -1.207031 9.21875 -0.84375 C 8.632812 -0.488281 7.941406 -0.234375 7.140625 -0.078125 C 6.335938 0.078125 5.46875 0.15625 4.53125 0.15625 C 3.570312 0.15625 2.789062 0.09375 2.1875 -0.03125 C 1.59375 -0.15625 1.125 -0.289062 0.78125 -0.4375 C 0.363281 -0.613281 0.0546875 -0.8125 -0.140625 -1.03125 L 0.53125 -3.75 L 4.03125 -3.75 C 4.019531 -3.632812 4.003906 -3.472656 3.984375 -3.265625 C 3.972656 -3.066406 3.96875 -2.90625 3.96875 -2.78125 C 3.96875 -2.625 3.988281 -2.457031 4.03125 -2.28125 C 4.070312 -2.113281 4.132812 -1.957031 4.21875 -1.8125 C 4.3125 -1.664062 4.4375 -1.546875 4.59375 -1.453125 C 4.75 -1.359375 4.945312 -1.3125 5.1875 -1.3125 C 5.445312 -1.3125 5.679688 -1.367188 5.890625 -1.484375 C 6.097656 -1.609375 6.269531 -1.757812 6.40625 -1.9375 C 6.550781 -2.113281 6.660156 -2.3125 6.734375 -2.53125 C 6.804688 -2.75 6.84375 -2.96875 6.84375 -3.1875 C 6.84375 -3.476562 6.769531 -3.722656 6.625 -3.921875 C 6.488281 -4.117188 6.300781 -4.285156 6.0625 -4.421875 C 5.820312 -4.554688 5.546875 -4.671875 5.234375 -4.765625 C 4.921875 -4.867188 4.597656 -4.976562 4.265625 -5.09375 C 3.953125 -5.1875 3.617188 -5.296875 3.265625 -5.421875 C 2.921875 -5.554688 2.601562 -5.742188 2.3125 -5.984375 C 2.019531 -6.222656 1.773438 -6.523438 1.578125 -6.890625 C 1.390625 -7.253906 1.296875 -7.71875 1.296875 -8.28125 C 1.296875 -9.132812 1.507812 -9.847656 1.9375 -10.421875 C 2.363281 -10.992188 2.90625 -11.457031 3.5625 -11.8125 C 4.21875 -12.175781 4.9375 -12.429688 5.71875 -12.578125 C 6.5 -12.734375 7.242188 -12.8125 7.953125 -12.8125 C 8.878906 -12.8125 9.675781 -12.703125 10.34375 -12.484375 C 11.007812 -12.265625 11.515625 -12.007812 11.859375 -11.71875 L 11.125 -8.96875 Z M 7.828125 -8.96875 "/></g></g></g><g fill="#000000" fill-opacity="1"><g transform="translate(165.217345, 52.182862)"><g><path d="M 7.828125 -8.96875 C 7.867188 -9.164062 7.890625 -9.4375 7.890625 -9.78125 C 7.890625 -9.976562 7.875 -10.171875 7.84375 -10.359375 C 7.820312 -10.554688 7.773438 -10.726562 7.703125 -10.875 C 7.640625 -11.03125 7.539062 -11.148438 7.40625 -11.234375 C 7.28125 -11.328125 7.109375 -11.375 6.890625 -11.375 C 6.648438 -11.375 6.429688 -11.316406 6.234375 -11.203125 C 6.035156 -11.097656 5.859375 -10.960938 5.703125 -10.796875 C 5.554688 -10.628906 5.441406 -10.4375 5.359375 -10.21875 C 5.273438 -10 5.234375 -9.773438 5.234375 -9.546875 C 5.234375 -9.191406 5.320312 -8.921875 5.5 -8.734375 C 5.675781 -8.554688 5.910156 -8.40625 6.203125 -8.28125 C 6.492188 -8.164062 6.820312 -8.066406 7.1875 -7.984375 C 7.5625 -7.910156 7.945312 -7.820312 8.34375 -7.71875 C 8.675781 -7.625 9.007812 -7.503906 9.34375 -7.359375 C 9.675781 -7.210938 9.96875 -7.015625 10.21875 -6.765625 C 10.476562 -6.523438 10.6875 -6.207031 10.84375 -5.8125 C 11.007812 -5.425781 11.09375 -4.941406 11.09375 -4.359375 C 11.09375 -3.515625 10.925781 -2.804688 10.59375 -2.234375 C 10.257812 -1.671875 9.800781 -1.207031 9.21875 -0.84375 C 8.632812 -0.488281 7.941406 -0.234375 7.140625 -0.078125 C 6.335938 0.078125 5.46875 0.15625 4.53125 0.15625 C 3.570312 0.15625 2.789062 0.09375 2.1875 -0.03125 C 1.59375 -0.15625 1.125 -0.289062 0.78125 -0.4375 C 0.363281 -0.613281 0.0546875 -0.8125 -0.140625 -1.03125 L 0.53125 -3.75 L 4.03125 -3.75 C 4.019531 -3.632812 4.003906 -3.472656 3.984375 -3.265625 C 3.972656 -3.066406 3.96875 -2.90625 3.96875 -2.78125 C 3.96875 -2.625 3.988281 -2.457031 4.03125 -2.28125 C 4.070312 -2.113281 4.132812 -1.957031 4.21875 -1.8125 C 4.3125 -1.664062 4.4375 -1.546875 4.59375 -1.453125 C 4.75 -1.359375 4.945312 -1.3125 5.1875 -1.3125 C 5.445312 -1.3125 5.679688 -1.367188 5.890625 -1.484375 C 6.097656 -1.609375 6.269531 -1.757812 6.40625 -1.9375 C 6.550781 -2.113281 6.660156 -2.3125 6.734375 -2.53125 C 6.804688 -2.75 6.84375 -2.96875 6.84375 -3.1875 C 6.84375 -3.476562 6.769531 -3.722656 6.625 -3.921875 C 6.488281 -4.117188 6.300781 -4.285156 6.0625 -4.421875 C 5.820312 -4.554688 5.546875 -4.671875 5.234375 -4.765625 C 4.921875 -4.867188 4.597656 -4.976562 4.265625 -5.09375 C 3.953125 -5.1875 3.617188 -5.296875 3.265625 -5.421875 C 2.921875 -5.554688 2.601562 -5.742188 2.3125 -5.984375 C 2.019531 -6.222656 1.773438 -6.523438 1.578125 -6.890625 C 1.390625 -7.253906 1.296875 -7.71875 1.296875 -8.28125 C 1.296875 -9.132812 1.507812 -9.847656 1.9375 -10.421875 C 2.363281 -10.992188 2.90625 -11.457031 3.5625 -11.8125 C 4.21875 -12.175781 4.9375 -12.429688 5.71875 -12.578125 C 6.5 -12.734375 7.242188 -12.8125 7.953125 -12.8125 C 8.878906 -12.8125 9.675781 -12.703125 10.34375 -12.484375 C 11.007812 -12.265625 11.515625 -12.007812 11.859375 -11.71875 L 11.125 -8.96875 Z M 7.828125 -8.96875 "/></g></g></g><g fill="#000000" fill-opacity="1"><g transform="translate(44.282341, 77.828952)"><g><path d="M 5.84375 -7.75 L 5.84375 -6.71875 L 1.75 -6.71875 L 1.75 -4.609375 L 5.453125 -4.609375 L 5.453125 -3.546875 L 1.75 -3.546875 L 1.75 0 L 0.609375 0 L 0.609375 -7.75 Z M 5.84375 -7.75 "/></g></g></g><g fill="#000000" fill-opacity="1"><g transform="translate(50.188922, 77.828952)"><g><path d="M 2.71875 -6.8125 L 2.71875 -0.9375 L 3.28125 -0.9375 L 3.28125 0 L 1 0 L 1 -0.9375 L 1.578125 -0.9375 L 1.578125 -6.8125 L 1 -6.8125 L 1 -7.75 L 3.28125 -7.75 L 3.28125 -6.8125 Z M 2.71875 -6.8125 "/></g></g></g><g fill="#000000" fill-opacity="1"><g transform="translate(54.487602, 77.828952)"><g><path d="M 2.15625 -6.71875 L 0.046875 -6.71875 L 0.046875 -7.75 L 5.40625 -7.75 L 5.40625 -6.71875 L 3.296875 -6.71875 L 3.296875 0 L 2.15625 0 Z M 2.15625 -6.71875 "/></g></g></g><g fill="#000000" fill-opacity="1"><g transform="translate(60.197298, 77.828952)"><g><path d="M 7.296875 -7.75 L 7.296875 0 L 6.140625 0 L 1.796875 -5.953125 L 1.796875 0 L 0.609375 0 L 0.609375 -7.75 L 1.8125 -7.75 L 6.140625 -1.765625 L 6.140625 -7.75 Z M 7.296875 -7.75 "/></g></g></g><g fill="#000000" fill-opacity="1"><g transform="translate(68.127429, 77.828952)"><g><path d="M 5.34375 -7.75 L 5.34375 -6.71875 L 1.75 -6.71875 L 1.75 -4.609375 L 4.953125 -4.609375 L 4.953125 -3.546875 L 1.75 -3.546875 L 1.75 -1.0625 L 5.34375 -1.0625 L 5.34375 0 L 0.609375 0 L 0.609375 -7.75 Z M 5.34375 -7.75 "/></g></g></g><g fill="#000000" fill-opacity="1"><g transform="translate(74.13245, 77.828952)"><g><path d="M 5.78125 -2.171875 C 5.78125 -1.847656 5.710938 -1.546875 5.578125 -1.265625 C 5.453125 -0.984375 5.265625 -0.738281 5.015625 -0.53125 C 4.503906 -0.101562 3.859375 0.109375 3.078125 0.109375 C 2.460938 0.109375 1.90625 -0.015625 1.40625 -0.265625 C 0.914062 -0.515625 0.550781 -0.851562 0.3125 -1.28125 L 1.296875 -1.78125 C 1.441406 -1.519531 1.671875 -1.316406 1.984375 -1.171875 C 2.296875 -1.035156 2.660156 -0.96875 3.078125 -0.96875 C 4.128906 -0.96875 4.65625 -1.367188 4.65625 -2.171875 C 4.65625 -2.328125 4.628906 -2.457031 4.578125 -2.5625 C 4.523438 -2.675781 4.441406 -2.78125 4.328125 -2.875 C 4.066406 -3.09375 3.597656 -3.289062 2.921875 -3.46875 C 2.515625 -3.570312 2.164062 -3.679688 1.875 -3.796875 C 1.59375 -3.921875 1.359375 -4.070312 1.171875 -4.25 C 0.710938 -4.613281 0.484375 -5.101562 0.484375 -5.71875 C 0.484375 -6.019531 0.539062 -6.304688 0.65625 -6.578125 C 0.78125 -6.847656 0.953125 -7.078125 1.171875 -7.265625 C 1.398438 -7.460938 1.664062 -7.609375 1.96875 -7.703125 C 2.269531 -7.804688 2.601562 -7.859375 2.96875 -7.859375 C 3.5 -7.859375 3.988281 -7.753906 4.4375 -7.546875 C 4.882812 -7.347656 5.222656 -7.0625 5.453125 -6.6875 L 4.578125 -6.140625 C 4.359375 -6.398438 4.109375 -6.582031 3.828125 -6.6875 C 3.554688 -6.789062 3.269531 -6.84375 2.96875 -6.84375 C 2.75 -6.84375 2.546875 -6.804688 2.359375 -6.734375 C 2.179688 -6.660156 2.03125 -6.570312 1.90625 -6.46875 C 1.800781 -6.382812 1.722656 -6.273438 1.671875 -6.140625 C 1.628906 -6.015625 1.609375 -5.878906 1.609375 -5.734375 C 1.609375 -5.640625 1.617188 -5.539062 1.640625 -5.4375 C 1.671875 -5.34375 1.738281 -5.242188 1.84375 -5.140625 C 1.957031 -5.035156 2.117188 -4.929688 2.328125 -4.828125 C 2.546875 -4.734375 2.835938 -4.640625 3.203125 -4.546875 C 3.640625 -4.441406 4.003906 -4.320312 4.296875 -4.1875 C 4.597656 -4.0625 4.851562 -3.910156 5.0625 -3.734375 C 5.539062 -3.347656 5.78125 -2.828125 5.78125 -2.171875 Z M 5.78125 -2.171875 "/></g></g></g><g fill="#000000" fill-opacity="1"><g transform="translate(80.476555, 77.828952)"><g><path d="M 5.78125 -2.171875 C 5.78125 -1.847656 5.710938 -1.546875 5.578125 -1.265625 C 5.453125 -0.984375 5.265625 -0.738281 5.015625 -0.53125 C 4.503906 -0.101562 3.859375 0.109375 3.078125 0.109375 C 2.460938 0.109375 1.90625 -0.015625 1.40625 -0.265625 C 0.914062 -0.515625 0.550781 -0.851562 0.3125 -1.28125 L 1.296875 -1.78125 C 1.441406 -1.519531 1.671875 -1.316406 1.984375 -1.171875 C 2.296875 -1.035156 2.660156 -0.96875 3.078125 -0.96875 C 4.128906 -0.96875 4.65625 -1.367188 4.65625 -2.171875 C 4.65625 -2.328125 4.628906 -2.457031 4.578125 -2.5625 C 4.523438 -2.675781 4.441406 -2.78125 4.328125 -2.875 C 4.066406 -3.09375 3.597656 -3.289062 2.921875 -3.46875 C 2.515625 -3.570312 2.164062 -3.679688 1.875 -3.796875 C 1.59375 -3.921875 1.359375 -4.070312 1.171875 -4.25 C 0.710938 -4.613281 0.484375 -5.101562 0.484375 -5.71875 C 0.484375 -6.019531 0.539062 -6.304688 0.65625 -6.578125 C 0.78125 -6.847656 0.953125 -7.078125 1.171875 -7.265625 C 1.398438 -7.460938 1.664062 -7.609375 1.96875 -7.703125 C 2.269531 -7.804688 2.601562 -7.859375 2.96875 -7.859375 C 3.5 -7.859375 3.988281 -7.753906 4.4375 -7.546875 C 4.882812 -7.347656 5.222656 -7.0625 5.453125 -6.6875 L 4.578125 -6.140625 C 4.359375 -6.398438 4.109375 -6.582031 3.828125 -6.6875 C 3.554688 -6.789062 3.269531 -6.84375 2.96875 -6.84375 C 2.75 -6.84375 2.546875 -6.804688 2.359375 -6.734375 C 2.179688 -6.660156 2.03125 -6.570312 1.90625 -6.46875 C 1.800781 -6.382812 1.722656 -6.273438 1.671875 -6.140625 C 1.628906 -6.015625 1.609375 -5.878906 1.609375 -5.734375 C 1.609375 -5.640625 1.617188 -5.539062 1.640625 -5.4375 C 1.671875 -5.34375 1.738281 -5.242188 1.84375 -5.140625 C 1.957031 -5.035156 2.117188 -4.929688 2.328125 -4.828125 C 2.546875 -4.734375 2.835938 -4.640625 3.203125 -4.546875 C 3.640625 -4.441406 4.003906 -4.320312 4.296875 -4.1875 C 4.597656 -4.0625 4.851562 -3.910156 5.0625 -3.734375 C 5.539062 -3.347656 5.78125 -2.828125 5.78125 -2.171875 Z M 5.78125 -2.171875 "/></g></g></g><g fill="#000000" fill-opacity="1"><g transform="translate(86.820659, 77.828952)"><g/></g></g><g fill="#000000" fill-opacity="1"><g transform="translate(89.675504, 77.828952)"><g><path d="M 5.84375 -7.75 L 5.84375 -6.71875 L 1.75 -6.71875 L 1.75 -4.609375 L 5.453125 -4.609375 L 5.453125 -3.546875 L 1.75 -3.546875 L 1.75 0 L 0.609375 0 L 0.609375 -7.75 Z M 5.84375 -7.75 "/></g></g></g><g fill="#000000" fill-opacity="1"><g transform="translate(95.582085, 77.828952)"><g><path d="M 4.203125 -7.859375 C 4.734375 -7.859375 5.226562 -7.753906 5.6875 -7.546875 C 6.15625 -7.335938 6.5625 -7.050781 6.90625 -6.6875 C 7.257812 -6.320312 7.535156 -5.894531 7.734375 -5.40625 C 7.941406 -4.925781 8.046875 -4.414062 8.046875 -3.875 C 8.046875 -3.332031 7.941406 -2.820312 7.734375 -2.34375 C 7.535156 -1.863281 7.257812 -1.441406 6.90625 -1.078125 C 6.5625 -0.710938 6.15625 -0.425781 5.6875 -0.21875 C 5.21875 -0.0078125 4.722656 0.09375 4.203125 0.09375 C 3.671875 0.09375 3.171875 -0.0078125 2.703125 -0.21875 C 2.242188 -0.425781 1.835938 -0.710938 1.484375 -1.078125 C 1.140625 -1.441406 0.867188 -1.863281 0.671875 -2.34375 C 0.472656 -2.820312 0.375 -3.332031 0.375 -3.875 C 0.375 -4.414062 0.472656 -4.925781 0.671875 -5.40625 C 0.867188 -5.894531 1.140625 -6.320312 1.484375 -6.6875 C 1.835938 -7.050781 2.25 -7.335938 2.71875 -7.546875 C 3.1875 -7.753906 3.679688 -7.859375 4.203125 -7.859375 Z M 4.203125 -0.984375 C 4.578125 -0.984375 4.925781 -1.054688 5.25 -1.203125 C 5.570312 -1.359375 5.851562 -1.566406 6.09375 -1.828125 C 6.34375 -2.085938 6.535156 -2.394531 6.671875 -2.75 C 6.804688 -3.101562 6.875 -3.476562 6.875 -3.875 C 6.875 -4.28125 6.804688 -4.65625 6.671875 -5 C 6.535156 -5.351562 6.34375 -5.660156 6.09375 -5.921875 C 5.851562 -6.191406 5.570312 -6.398438 5.25 -6.546875 C 4.925781 -6.691406 4.578125 -6.765625 4.203125 -6.765625 C 3.835938 -6.765625 3.488281 -6.691406 3.15625 -6.546875 C 2.832031 -6.398438 2.550781 -6.191406 2.3125 -5.921875 C 2.070312 -5.660156 1.878906 -5.351562 1.734375 -5 C 1.597656 -4.65625 1.53125 -4.28125 1.53125 -3.875 C 1.53125 -3.476562 1.597656 -3.101562 1.734375 -2.75 C 1.878906 -2.394531 2.070312 -2.085938 2.3125 -1.828125 C 2.550781 -1.566406 2.832031 -1.359375 3.15625 -1.203125 C 3.488281 -1.054688 3.835938 -0.984375 4.203125 -0.984375 Z M 4.203125 -0.984375 "/></g></g></g><g fill="#000000" fill-opacity="1"><g transform="translate(103.971618, 77.828952)"><g><path d="M 7.015625 0 L 5.578125 0 L 3.140625 -3.34375 L 1.78125 -3.34375 L 1.78125 0 L 0.640625 0 L 0.640625 -7.75 L 3.78125 -7.75 C 4.09375 -7.75 4.382812 -7.691406 4.65625 -7.578125 C 4.925781 -7.460938 5.160156 -7.304688 5.359375 -7.109375 C 5.566406 -6.910156 5.726562 -6.675781 5.84375 -6.40625 C 5.957031 -6.144531 6.015625 -5.863281 6.015625 -5.5625 C 6.015625 -5.300781 5.972656 -5.054688 5.890625 -4.828125 C 5.816406 -4.609375 5.707031 -4.40625 5.5625 -4.21875 C 5.414062 -4.039062 5.242188 -3.882812 5.046875 -3.75 C 4.847656 -3.613281 4.632812 -3.507812 4.40625 -3.4375 Z M 3.78125 -4.421875 C 3.9375 -4.421875 4.082031 -4.453125 4.21875 -4.515625 C 4.351562 -4.578125 4.46875 -4.65625 4.5625 -4.75 C 4.664062 -4.851562 4.75 -4.976562 4.8125 -5.125 C 4.875 -5.269531 4.90625 -5.421875 4.90625 -5.578125 C 4.90625 -5.734375 4.875 -5.878906 4.8125 -6.015625 C 4.75 -6.160156 4.664062 -6.285156 4.5625 -6.390625 C 4.46875 -6.492188 4.351562 -6.578125 4.21875 -6.640625 C 4.082031 -6.703125 3.9375 -6.734375 3.78125 -6.734375 L 1.78125 -6.734375 L 1.78125 -4.40625 Z M 3.78125 -4.421875 "/></g></g></g><g fill="#000000" fill-opacity="1"><g transform="translate(111.147022, 77.828952)"><g/></g></g><g fill="#000000" fill-opacity="1"><g transform="translate(114.001867, 77.828952)"><g><path d="M 5.34375 -7.75 L 5.34375 -6.71875 L 1.75 -6.71875 L 1.75 -4.609375 L 4.953125 -4.609375 L 4.953125 -3.546875 L 1.75 -3.546875 L 1.75 -1.0625 L 5.34375 -1.0625 L 5.34375 0 L 0.609375 0 L 0.609375 -7.75 Z M 5.34375 -7.75 "/></g></g></g><g fill="#000000" fill-opacity="1"><g transform="translate(120.006889, 77.828952)"><g><path d="M 3.375 0 L 0.15625 -7.75 L 1.390625 -7.75 L 4 -1.46875 L 6.609375 -7.75 L 7.859375 -7.75 L 4.640625 0 Z M 3.375 0 "/></g></g></g><g fill="#000000" fill-opacity="1"><g transform="translate(128.013587, 77.828952)"><g><path d="M 5.34375 -7.75 L 5.34375 -6.71875 L 1.75 -6.71875 L 1.75 -4.609375 L 4.953125 -4.609375 L 4.953125 -3.546875 L 1.75 -3.546875 L 1.75 -1.0625 L 5.34375 -1.0625 L 5.34375 0 L 0.609375 0 L 0.609375 -7.75 Z M 5.34375 -7.75 "/></g></g></g><g fill="#000000" fill-opacity="1"><g transform="translate(134.018613, 77.828952)"><g><path d="M 7.015625 0 L 5.578125 0 L 3.140625 -3.34375 L 1.78125 -3.34375 L 1.78125 0 L 0.640625 0 L 0.640625 -7.75 L 3.78125 -7.75 C 4.09375 -7.75 4.382812 -7.691406 4.65625 -7.578125 C 4.925781 -7.460938 5.160156 -7.304688 5.359375 -7.109375 C 5.566406 -6.910156 5.726562 -6.675781 5.84375 -6.40625 C 5.957031 -6.144531 6.015625 -5.863281 6.015625 -5.5625 C 6.015625 -5.300781 5.972656 -5.054688 5.890625 -4.828125 C 5.816406 -4.609375 5.707031 -4.40625 5.5625 -4.21875 C 5.414062 -4.039062 5.242188 -3.882812 5.046875 -3.75 C 4.847656 -3.613281 4.632812 -3.507812 4.40625 -3.4375 Z M 3.78125 -4.421875 C 3.9375 -4.421875 4.082031 -4.453125 4.21875 -4.515625 C 4.351562 -4.578125 4.46875 -4.65625 4.5625 -4.75 C 4.664062 -4.851562 4.75 -4.976562 4.8125 -5.125 C 4.875 -5.269531 4.90625 -5.421875 4.90625 -5.578125 C 4.90625 -5.734375 4.875 -5.878906 4.8125 -6.015625 C 4.75 -6.160156 4.664062 -6.285156 4.5625 -6.390625 C 4.46875 -6.492188 4.351562 -6.578125 4.21875 -6.640625 C 4.082031 -6.703125 3.9375 -6.734375 3.78125 -6.734375 L 1.78125 -6.734375 L 1.78125 -4.40625 Z M 3.78125 -4.421875 "/></g></g></g><g fill="#000000" fill-opacity="1"><g transform="translate(141.194012, 77.828952)"><g><path d="M 2.828125 -3.625 L 0.09375 -7.75 L 1.46875 -7.75 L 3.40625 -4.84375 L 5.34375 -7.75 L 6.71875 -7.75 L 3.984375 -3.625 L 3.984375 0 L 2.828125 0 Z M 2.828125 -3.625 "/></g></g></g><g fill="#000000" fill-opacity="1"><g transform="translate(148.052211, 77.828952)"><g/></g></g><g fill="#000000" fill-opacity="1"><g transform="translate(150.907056, 77.828952)"><g><path d="M 6.109375 -2.171875 C 6.109375 -1.867188 6.050781 -1.582031 5.9375 -1.3125 C 5.820312 -1.050781 5.664062 -0.820312 5.46875 -0.625 C 5.269531 -0.4375 5.035156 -0.285156 4.765625 -0.171875 C 4.503906 -0.0546875 4.222656 0 3.921875 0 L 0.609375 0 L 0.609375 -7.75 L 3.640625 -7.75 C 3.898438 -7.75 4.144531 -7.695312 4.375 -7.59375 C 4.613281 -7.5 4.820312 -7.363281 5 -7.1875 C 5.175781 -7.007812 5.3125 -6.800781 5.40625 -6.5625 C 5.507812 -6.332031 5.5625 -6.082031 5.5625 -5.8125 C 5.5625 -5.46875 5.503906 -5.160156 5.390625 -4.890625 C 5.285156 -4.617188 5.109375 -4.390625 4.859375 -4.203125 C 5.273438 -4.046875 5.585938 -3.78125 5.796875 -3.40625 C 6.003906 -3.039062 6.109375 -2.628906 6.109375 -2.171875 Z M 1.75 -4.609375 C 2.039062 -4.609375 2.3125 -4.609375 2.5625 -4.609375 L 3.65625 -4.609375 C 3.925781 -4.609375 4.15625 -4.710938 4.34375 -4.921875 C 4.539062 -5.128906 4.640625 -5.378906 4.640625 -5.671875 C 4.640625 -5.960938 4.539062 -6.207031 4.34375 -6.40625 C 4.15625 -6.613281 3.925781 -6.71875 3.65625 -6.71875 L 1.75 -6.71875 Z M 1.75 -1.0625 C 1.800781 -1.050781 1.914062 -1.046875 2.09375 -1.046875 L 3.921875 -1.046875 C 4.078125 -1.046875 4.222656 -1.078125 4.359375 -1.140625 C 4.492188 -1.210938 4.609375 -1.300781 4.703125 -1.40625 C 4.804688 -1.519531 4.890625 -1.65625 4.953125 -1.8125 C 5.015625 -1.96875 5.046875 -2.132812 5.046875 -2.3125 C 5.046875 -2.476562 5.015625 -2.632812 4.953125 -2.78125 C 4.890625 -2.9375 4.804688 -3.070312 4.703125 -3.1875 C 4.609375 -3.300781 4.492188 -3.390625 4.359375 -3.453125 C 4.222656 -3.515625 4.078125 -3.546875 3.921875 -3.546875 L 1.75 -3.546875 Z M 1.75 -1.0625 "/></g></g></g><g fill="#000000" fill-opacity="1"><g transform="translate(157.46993, 77.828952)"><g><path d="M 4.203125 -7.859375 C 4.734375 -7.859375 5.226562 -7.753906 5.6875 -7.546875 C 6.15625 -7.335938 6.5625 -7.050781 6.90625 -6.6875 C 7.257812 -6.320312 7.535156 -5.894531 7.734375 -5.40625 C 7.941406 -4.925781 8.046875 -4.414062 8.046875 -3.875 C 8.046875 -3.332031 7.941406 -2.820312 7.734375 -2.34375 C 7.535156 -1.863281 7.257812 -1.441406 6.90625 -1.078125 C 6.5625 -0.710938 6.15625 -0.425781 5.6875 -0.21875 C 5.21875 -0.0078125 4.722656 0.09375 4.203125 0.09375 C 3.671875 0.09375 3.171875 -0.0078125 2.703125 -0.21875 C 2.242188 -0.425781 1.835938 -0.710938 1.484375 -1.078125 C 1.140625 -1.441406 0.867188 -1.863281 0.671875 -2.34375 C 0.472656 -2.820312 0.375 -3.332031 0.375 -3.875 C 0.375 -4.414062 0.472656 -4.925781 0.671875 -5.40625 C 0.867188 -5.894531 1.140625 -6.320312 1.484375 -6.6875 C 1.835938 -7.050781 2.25 -7.335938 2.71875 -7.546875 C 3.1875 -7.753906 3.679688 -7.859375 4.203125 -7.859375 Z M 4.203125 -0.984375 C 4.578125 -0.984375 4.925781 -1.054688 5.25 -1.203125 C 5.570312 -1.359375 5.851562 -1.566406 6.09375 -1.828125 C 6.34375 -2.085938 6.535156 -2.394531 6.671875 -2.75 C 6.804688 -3.101562 6.875 -3.476562 6.875 -3.875 C 6.875 -4.28125 6.804688 -4.65625 6.671875 -5 C 6.535156 -5.351562 6.34375 -5.660156 6.09375 -5.921875 C 5.851562 -6.191406 5.570312 -6.398438 5.25 -6.546875 C 4.925781 -6.691406 4.578125 -6.765625 4.203125 -6.765625 C 3.835938 -6.765625 3.488281 -6.691406 3.15625 -6.546875 C 2.832031 -6.398438 2.550781 -6.191406 2.3125 -5.921875 C 2.070312 -5.660156 1.878906 -5.351562 1.734375 -5 C 1.597656 -4.65625 1.53125 -4.28125 1.53125 -3.875 C 1.53125 -3.476562 1.597656 -3.101562 1.734375 -2.75 C 1.878906 -2.394531 2.070312 -2.085938 2.3125 -1.828125 C 2.550781 -1.566406 2.832031 -1.359375 3.15625 -1.203125 C 3.488281 -1.054688 3.835938 -0.984375 4.203125 -0.984375 Z M 4.203125 -0.984375 "/></g></g></g><g fill="#000000" fill-opacity="1"><g transform="translate(165.859468, 77.828952)"><g><path d="M 0.65625 0 L 0.65625 -7.75 L 3.40625 -7.75 C 3.96875 -7.75 4.460938 -7.644531 4.890625 -7.4375 C 5.328125 -7.238281 5.6875 -6.960938 5.96875 -6.609375 C 6.257812 -6.265625 6.476562 -5.851562 6.625 -5.375 C 6.78125 -4.90625 6.859375 -4.40625 6.859375 -3.875 C 6.859375 -3.332031 6.78125 -2.828125 6.625 -2.359375 C 6.46875 -1.890625 6.25 -1.476562 5.96875 -1.125 C 5.695312 -0.769531 5.367188 -0.492188 4.984375 -0.296875 C 4.609375 -0.0976562 4.203125 0 3.765625 0 Z M 3.375 -1.0625 C 3.78125 -1.0625 4.128906 -1.132812 4.421875 -1.28125 C 4.710938 -1.4375 4.953125 -1.640625 5.140625 -1.890625 C 5.335938 -2.148438 5.476562 -2.453125 5.5625 -2.796875 C 5.65625 -3.140625 5.703125 -3.5 5.703125 -3.875 C 5.703125 -4.238281 5.65625 -4.59375 5.5625 -4.9375 C 5.476562 -5.289062 5.34375 -5.597656 5.15625 -5.859375 C 4.96875 -6.117188 4.722656 -6.328125 4.421875 -6.484375 C 4.128906 -6.640625 3.78125 -6.71875 3.375 -6.71875 L 1.796875 -6.71875 L 1.796875 -1.0625 Z M 3.375 -1.0625 "/></g></g></g><g fill="#000000" fill-opacity="1"><g transform="translate(173.275505, 77.828952)"><g><path d="M 2.828125 -3.625 L 0.09375 -7.75 L 1.46875 -7.75 L 3.40625 -4.84375 L 5.34375 -7.75 L 6.71875 -7.75 L 3.984375 -3.625 L 3.984375 0 L 2.828125 0 Z M 2.828125 -3.625 "/></g></g></g><g fill="#000000" fill-opacity="1"><g transform="translate(112.203015, 92.865584)"><g/></g></g></svg>