<svg id="visual" viewBox="0 0 900 300" width="900" height="300" xmlns="http://www.w3.org/2000/svg" xmlns:xlink="http://www.w3.org/1999/xlink" version="1.1"><rect x="0" y="0" width="900" height="300" fill="#54855b"></rect><path d="M0 137L30 140.7C60 144.3 120 151.7 180 146.5C240 141.3 300 123.7 360 114.2C420 104.7 480 103.3 540 103.7C600 104 660 106 720 124.2C780 142.3 840 176.7 870 193.8L900 211L900 0L870 0C840 0 780 0 720 0C660 0 600 0 540 0C480 0 420 0 360 0C300 0 240 0 180 0C120 0 60 0 30 0L0 0Z" fill="#ffffff" stroke-linecap="round" stroke-linejoin="miter"></path></svg>