<svg id="visual" viewBox="0 0 900 600" width="900" height="600" xmlns="http://www.w3.org/2000/svg" xmlns:xlink="http://www.w3.org/1999/xlink" version="1.1"><rect x="0" y="0" width="900" height="600" fill="#385541"></rect><path d="M0 325L30 328.8C60 332.7 120 340.3 180 356.8C240 373.3 300 398.7 360 407.8C420 417 480 410 540 399.2C600 388.3 660 373.7 720 367.5C780 361.3 840 363.7 870 364.8L900 366L900 601L870 601C840 601 780 601 720 601C660 601 600 601 540 601C480 601 420 601 360 601C300 601 240 601 180 601C120 601 60 601 30 601L0 601Z" fill="#ffffff" stroke-linecap="round" stroke-linejoin="miter"></path></svg>